<?xml version="1.0" encoding="UTF-8" standalone="no"?><svg xmlns="http://www.w3.org/2000/svg" xmlns:xlink="http://www.w3.org/1999/xlink" contentScriptType="application/ecmascript" contentStyleType="text/css" height="321px" preserveAspectRatio="none" style="width:211px;height:321px;" version="1.1" viewBox="0 0 211 321" width="211px" zoomAndPan="magnify"><defs><filter height="300%" id="fkj6udqs5892f" width="300%" x="-1" y="-1"><feGaussianBlur result="blurOut" stdDeviation="2.0"/><feColorMatrix in="blurOut" result="blurOut2" type="matrix" values="0 0 0 0 0 0 0 0 0 0 0 0 0 0 0 0 0 0 .4 0"/><feOffset dx="4.0" dy="4.0" in="blurOut2" result="blurOut3"/><feBlend in="SourceGraphic" in2="blurOut3" mode="normal"/></filter></defs><g><ellipse cx="103" cy="18" fill="#000000" filter="url(#fkj6udqs5892f)" rx="10" ry="10" style="stroke: none; stroke-width: 1.0;"/><rect fill="#FEFECE" filter="url(#fkj6udqs5892f)" height="33.9688" rx="12.5" ry="12.5" style="stroke: #A80036; stroke-width: 1.5;" width="194" x="6" y="68"/><text fill="#000000" font-family="sans-serif" font-size="12" lengthAdjust="spacingAndGlyphs" textLength="174" x="16" y="89.1387">Retrieve page without index</text><rect fill="#FEFECE" filter="url(#fkj6udqs5892f)" height="33.9688" rx="12.5" ry="12.5" style="stroke: #A80036; stroke-width: 1.5;" width="123" x="41.5" y="142"/><text fill="#000000" font-family="sans-serif" font-size="12" lengthAdjust="spacingAndGlyphs" textLength="103" x="51.5" y="163.1387">Extract PageInfo</text><rect fill="#FEFECE" filter="url(#fkj6udqs5892f)" height="33.9688" rx="12.5" ry="12.5" style="stroke: #A80036; stroke-width: 1.5;" width="180" x="13" y="216"/><text fill="#000000" font-family="sans-serif" font-size="12" lengthAdjust="spacingAndGlyphs" textLength="160" x="23" y="237.1387">Retrieve remaining pages</text><ellipse cx="103" cy="300" fill="none" filter="url(#fkj6udqs5892f)" rx="10" ry="10" style="stroke: #000000; stroke-width: 1.0;"/><ellipse cx="103.5" cy="300.5" fill="#000000" rx="6" ry="6" style="stroke: none; stroke-width: 1.0;"/><!--link start to Retrieve page without index--><path d="M103,28.1759 C103,37.3186 103,51.0626 103,62.7436 " fill="none" id="start-Retrieve page without index" style="stroke: #A80036; stroke-width: 1.0;"/><polygon fill="#A80036" points="103,67.9414,107,58.9414,103,62.9414,99,58.9414,103,67.9414" style="stroke: #A80036; stroke-width: 1.0;"/><!--link Retrieve page without index to Extract PageInfo--><path d="M103,102.1631 C103,112.4368 103,125.6075 103,136.6831 " fill="none" id="Retrieve page without index-Extract PageInfo" style="stroke: #A80036; stroke-width: 1.0;"/><polygon fill="#A80036" points="103,141.93,107,132.93,103,136.93,99,132.93,103,141.93" style="stroke: #A80036; stroke-width: 1.0;"/><!--link Extract PageInfo to Retrieve remaining pages--><path d="M103,176.1631 C103,186.4368 103,199.6075 103,210.6831 " fill="none" id="Extract PageInfo-Retrieve remaining pages" style="stroke: #A80036; stroke-width: 1.0;"/><polygon fill="#A80036" points="103,215.93,107,206.93,103,210.93,99,206.93,103,215.93" style="stroke: #A80036; stroke-width: 1.0;"/><!--link Retrieve remaining pages to end--><path d="M103,250.2542 C103,260.9518 103,274.5657 103,284.8464 " fill="none" id="Retrieve remaining pages-end" style="stroke: #A80036; stroke-width: 1.0;"/><polygon fill="#A80036" points="103,289.8855,107,280.8855,103,284.8855,99,280.8855,103,289.8855" style="stroke: #A80036; stroke-width: 1.0;"/><!--
@startuml CanteenRetrievalFlow

(*) - -> "Retrieve page without index"
- ->"Extract PageInfo"
- ->"Retrieve remaining pages"
- ->(*)

@enduml

PlantUML version 1.2017.20(Mon Dec 11 17:57:05 CET 2017)
(GPL source distribution)
Java Runtime: OpenJDK Runtime Environment
JVM: OpenJDK 64-Bit Server VM
Java Version: 1.8.0_144-b01
Operating System: Linux
OS Version: 4.14.6-1-ARCH
Default Encoding: UTF-8
Language: en
Country: US
--></g></svg>